<mxfile host="app.diagrams.net" modified="2023-08-14T18:30:15.677Z" agent="Mozilla/5.0 (Macintosh; Intel Mac OS X 10_15_7) AppleWebKit/537.36 (KHTML, like Gecko) Chrome/115.0.0.0 Safari/537.36" version="21.6.5" etag="N2_ymoPDzt411hxnmavF" type="github">
  <diagram name="Page-1" id="WOMPUOYjYgw_9-zcxfnf">
    <mxGraphModel>
      <root>
        <mxCell id="0" />
        <mxCell id="1" parent="0" />
      </root>
    </mxGraphModel>
  </diagram>
</mxfile>
